<mxfile host="Electron" modified="2024-09-14T08:11:44.017Z" agent="Mozilla/5.0 (X11; Linux x86_64) AppleWebKit/537.36 (KHTML, like Gecko) draw.io/24.2.5 Chrome/120.0.6099.109 Electron/28.1.0 Safari/537.36" etag="LYStCBhoo5RHNeKJX5t5" version="24.2.5" type="device">
  <diagram name="Page-1" id="eJKaDi4Wr4aLTFI3Oc_T">
    <mxGraphModel dx="1420" dy="821" grid="1" gridSize="10" guides="1" tooltips="1" connect="1" arrows="1" fold="1" page="1" pageScale="1" pageWidth="850" pageHeight="1100" math="0" shadow="0">
      <root>
        <mxCell id="0" />
        <mxCell id="1" parent="0" />
        <mxCell id="KPwrv1CqBHHPCASC0MGX-1" value="5000" style="ellipse;whiteSpace=wrap;html=1;aspect=fixed;rounded=1;shadow=0;strokeColor=#6c8ebf;strokeWidth=1;fontFamily=Ubuntu;fontSize=16;fontStyle=0;fillColor=#dae8fc;" vertex="1" parent="1">
          <mxGeometry x="360" y="240" width="80" height="80" as="geometry" />
        </mxCell>
        <mxCell id="KPwrv1CqBHHPCASC0MGX-2" value="4000" style="ellipse;whiteSpace=wrap;html=1;aspect=fixed;rounded=1;shadow=0;strokeColor=#6c8ebf;strokeWidth=1;fontFamily=Ubuntu;fontSize=16;fontStyle=0;fillColor=#dae8fc;" vertex="1" parent="1">
          <mxGeometry x="240" y="360" width="80" height="80" as="geometry" />
        </mxCell>
        <mxCell id="KPwrv1CqBHHPCASC0MGX-5" value="" style="endArrow=classic;html=1;rounded=1;shadow=0;strokeColor=#6c8ebf;strokeWidth=2;fontFamily=Ubuntu;fontSize=14;fontStyle=0;fillColor=#dae8fc;exitX=0;exitY=1;exitDx=0;exitDy=0;" edge="1" parent="1" source="KPwrv1CqBHHPCASC0MGX-1" target="KPwrv1CqBHHPCASC0MGX-2">
          <mxGeometry width="50" height="50" relative="1" as="geometry">
            <mxPoint x="400" y="450" as="sourcePoint" />
            <mxPoint x="450" y="400" as="targetPoint" />
          </mxGeometry>
        </mxCell>
        <mxCell id="KPwrv1CqBHHPCASC0MGX-9" value="3000" style="ellipse;whiteSpace=wrap;html=1;aspect=fixed;rounded=1;shadow=0;strokeColor=#6c8ebf;strokeWidth=1;fontFamily=Ubuntu;fontSize=16;fontStyle=0;fillColor=#dae8fc;" vertex="1" parent="1">
          <mxGeometry x="160" y="520" width="80" height="80" as="geometry" />
        </mxCell>
        <mxCell id="KPwrv1CqBHHPCASC0MGX-10" value="" style="endArrow=classic;html=1;rounded=1;shadow=0;strokeColor=#6c8ebf;strokeWidth=2;fontFamily=Ubuntu;fontSize=14;fontStyle=0;fillColor=#dae8fc;entryX=0.5;entryY=0;entryDx=0;entryDy=0;" edge="1" parent="1" source="KPwrv1CqBHHPCASC0MGX-2" target="KPwrv1CqBHHPCASC0MGX-9">
          <mxGeometry width="50" height="50" relative="1" as="geometry">
            <mxPoint x="400" y="450" as="sourcePoint" />
            <mxPoint x="450" y="400" as="targetPoint" />
          </mxGeometry>
        </mxCell>
      </root>
    </mxGraphModel>
  </diagram>
</mxfile>
